<?xml version="1.0" standalone="no"?>
<!DOCTYPE svg PUBLIC "-//W3C//DTD SVG 20010904//EN"
 "http://www.w3.org/TR/2001/REC-SVG-20010904/DTD/svg10.dtd">
<svg version="1.0" xmlns="http://www.w3.org/2000/svg"
 width="1080.000000pt" height="1080.000000pt" viewBox="0 0 1080.000000 1080.000000"
 preserveAspectRatio="xMidYMid meet">

<g transform="translate(0.000000,1080.000000) scale(0.100000,-0.100000)"
fill="#000000" stroke="none">
<path d="M3797 9337 c76 -84 296 -344 374 -443 146 -183 160 -207 101 -166
-41 29 -134 79 -160 87 -23 7 -23 7 -7 -30 16 -40 103 -171 192 -292 30 -40
52 -73 50 -73 -2 0 -41 23 -87 50 -91 54 -104 59 -96 33 25 -85 96 -379 96
-400 0 -21 -11 -8 -56 63 -195 310 -453 491 -814 570 -115 25 -509 26 -610 2
-36 -9 -55 -16 -43 -17 87 -4 502 -97 688 -155 l80 -25 -195 -1 c-107 -1 -206
-5 -220 -9 -22 -6 -16 -11 57 -54 107 -63 218 -110 333 -142 181 -50 229 -65
234 -73 3 -5 -8 -6 -24 -4 -35 5 -200 -17 -200 -27 0 -10 89 -66 151 -94 30
-14 105 -37 165 -52 123 -30 157 -44 107 -45 -17 0 -57 -10 -87 -22 l-57 -21
33 -28 33 -27 -84 24 c-205 59 -281 69 -516 68 -205 0 -227 -2 -317 -26 -190
-52 -341 -138 -473 -272 -92 -93 -218 -276 -202 -292 3 -3 36 15 75 41 128 82
595 325 626 325 4 0 -33 -33 -81 -74 -120 -101 -232 -216 -211 -216 80 0 307
72 478 150 179 83 181 83 95 -5 -41 -41 -75 -80 -75 -85 0 -6 14 -10 30 -10
62 0 168 34 287 91 68 32 125 59 128 59 4 0 -5 -15 -18 -32 -24 -32 -57 -92
-57 -103 0 -3 19 -5 43 -5 54 0 174 33 239 66 98 50 107 48 46 -6 -32 -28 -58
-56 -58 -60 0 -5 28 -12 62 -16 l61 -7 -74 -26 c-306 -108 -509 -365 -590
-745 -10 -50 -19 -116 -19 -146 l0 -55 36 60 c20 33 53 80 74 106 26 31 43 65
54 110 9 35 29 96 43 134 l27 70 12 -118 c7 -65 14 -121 17 -123 9 -9 76 86
105 150 16 33 46 105 67 158 21 54 40 97 42 95 1 -2 -2 -43 -8 -91 -6 -48 -8
-90 -5 -93 11 -11 117 70 175 133 32 35 72 91 90 124 18 33 34 60 37 60 3 0 2
-41 -2 -92 l-7 -92 49 36 c27 19 67 45 89 56 44 22 127 38 144 28 6 -4 -9 -32
-39 -69 -120 -147 -269 -396 -354 -587 -16 -36 -37 -84 -47 -107 -31 -68 -125
-360 -153 -471 -60 -239 -93 -439 -121 -730 -18 -181 -20 -656 -5 -867 11
-144 27 -286 34 -293 7 -6 390 81 403 92 1 1 -13 78 -32 172 -119 580 -132
1133 -39 1634 73 396 235 777 462 1090 72 99 71 98 61 48 -22 -110 -42 -248
-37 -253 7 -7 79 23 101 43 22 20 22 7 -2 -26 -27 -39 -76 -139 -94 -194 -21
-60 -31 -138 -19 -138 12 0 56 33 105 79 l39 36 -60 -120 c-33 -66 -67 -138
-77 -160 -23 -56 -77 -267 -69 -274 3 -3 60 50 126 119 l120 125 -65 -125
c-35 -69 -79 -147 -95 -175 -17 -27 -40 -66 -51 -86 -11 -20 -41 -67 -66 -104
-26 -37 -44 -69 -41 -72 9 -9 116 58 184 115 174 146 291 327 349 540 25 88
27 114 28 277 0 99 -3 205 -7 235 l-8 55 22 -40 c45 -85 168 -225 197 -225 5
0 12 42 15 93 3 50 7 108 9 127 l2 35 49 -75 c61 -93 117 -211 147 -309 18
-60 24 -71 30 -54 6 17 28 180 29 220 1 19 104 -228 273 -650 19 -46 34 -72
38 -65 19 35 34 188 33 353 -1 158 -4 194 -28 297 -29 128 -81 265 -127 341
-16 26 -29 50 -29 53 0 16 -110 146 -174 206 -39 37 -68 68 -65 68 4 0 26 -7
50 -15 24 -9 77 -18 118 -22 l75 -6 -20 31 c-10 17 -34 49 -52 71 l-33 40 85
-39 c103 -48 292 -112 317 -108 18 3 11 19 -75 157 -12 19 44 -14 86 -52 72
-62 228 -128 373 -157 67 -14 224 -65 299 -99 27 -11 51 -20 53 -17 7 6 -39
78 -113 176 -91 122 -269 292 -386 370 -225 151 -410 210 -653 210 -109 0
-262 -18 -310 -37 -12 -4 -16 -3 -11 5 4 7 -9 15 -36 22 -77 19 -88 29 -37 29
96 2 277 51 263 72 -3 5 -31 22 -61 38 l-56 28 114 6 c111 6 177 19 249 49 35
14 35 15 12 27 -12 7 -55 20 -95 31 -88 22 -78 26 117 40 132 9 272 38 356 74
l32 13 -83 23 c-45 12 -124 30 -173 40 -89 17 -90 18 -51 26 22 4 169 8 326 8
158 1 282 5 275 9 -24 17 -143 75 -196 95 -143 56 -206 67 -380 67 -159 0
-168 -1 -255 -32 -257 -89 -457 -282 -617 -593 -43 -84 -45 -82 -21 22 26 116
23 368 -5 481 -93 374 -364 620 -851 773 l-74 23 20 -22z"/>
<path d="M9848 8766 c-20 -7 -59 -30 -86 -50 -75 -55 -246 -238 -351 -375
l-92 -121 -487 0 -487 0 -79 -116 c-43 -63 -76 -117 -75 -119 2 -1 63 -28 134
-58 72 -31 182 -79 245 -107 63 -28 175 -76 248 -108 72 -31 132 -60 132 -64
0 -4 -25 -49 -56 -100 -31 -51 -66 -109 -76 -128 -58 -103 -153 -262 -159
-266 -7 -4 -278 8 -435 20 l-62 5 -36 -55 -37 -55 53 -24 c29 -13 123 -55 208
-94 85 -38 156 -74 158 -79 6 -18 -257 -320 -458 -527 -743 -762 -1585 -1371
-2565 -1855 -1335 -659 -2532 -878 -3135 -575 -274 138 -414 405 -379 724 51
476 385 1029 1014 1680 l120 124 -102 -81 c-865 -694 -1525 -1481 -1768 -2112
-68 -175 -96 -307 -102 -480 -5 -137 -3 -166 16 -239 94 -374 410 -582 956
-632 226 -20 568 4 889 63 l119 22 16 -22 c9 -11 49 -73 90 -136 41 -63 79
-112 84 -109 6 3 7 2 4 -4 -6 -9 96 -144 176 -232 l38 -42 72 25 c40 14 99 35
132 46 57 20 176 67 240 95 348 153 754 355 895 446 14 9 56 34 94 55 92 52
173 102 326 198 70 45 396 262 414 277 6 5 112 84 235 175 393 291 644 507
986 849 204 203 307 313 451 479 38 44 89 103 114 131 75 85 89 103 245 302
169 216 314 409 375 498 22 33 74 110 115 170 107 158 104 153 171 235 33 41
108 139 167 218 l106 142 86 -120 c47 -66 89 -120 93 -120 4 0 22 23 40 50
l34 49 -26 186 c-14 103 -23 192 -19 198 4 7 34 46 68 87 99 123 241 305 260
334 14 20 20 24 26 14 4 -7 42 -119 84 -248 42 -129 80 -238 84 -243 4 -4 41
44 83 105 76 113 76 113 82 193 7 105 54 668 60 720 3 26 24 71 61 130 81 130
190 349 225 455 52 153 32 225 -52 196z"/>
<path d="M4570 251 c0 -74 2 -81 20 -81 17 0 20 7 20 40 0 22 3 40 8 40 4 -1
25 -19 47 -40 22 -22 43 -40 47 -40 5 0 8 36 8 80 0 73 -2 80 -20 80 -17 0
-20 -7 -20 -40 0 -45 -8 -49 -36 -19 -10 12 -31 30 -46 41 l-28 19 0 -80z"/>
<path d="M4750 250 c0 -73 2 -80 20 -80 16 0 20 7 20 35 0 33 2 35 35 35 33 0
35 -2 35 -35 0 -28 4 -35 20 -35 18 0 20 7 20 80 0 73 -2 80 -20 80 -16 0 -20
-7 -20 -30 0 -28 -3 -30 -35 -30 -32 0 -35 2 -35 30 0 23 -4 30 -20 30 -18 0
-20 -7 -20 -80z"/>
<path d="M4961 252 l-41 -82 25 0 c16 0 25 6 25 15 0 10 10 15 30 15 18 0 33
-6 36 -15 6 -16 44 -21 44 -7 0 9 -53 118 -69 141 -7 11 -19 -6 -50 -67z m48
-21 c-15 -5 -22 6 -14 19 6 9 10 9 16 -1 5 -8 4 -15 -2 -18z"/>
<path d="M5108 303 c-6 -91 -3 -125 10 -130 22 -9 29 13 29 88 0 60 -2 69 -18
69 -14 0 -20 -8 -21 -27z"/>
<path d="M5180 250 c0 -73 2 -80 19 -80 16 0 20 8 23 40 l3 40 53 -46 52 -46
0 86 c0 79 -2 86 -20 86 -17 0 -20 -7 -20 -46 l0 -47 -50 47 c-27 25 -52 46
-55 46 -3 0 -5 -36 -5 -80z"/>
</g>
</svg>
